<?xml version="1.0" encoding="UTF-8"?>
<svg xmlns="http://www.w3.org/2000/svg" width="1800" height="1060" viewBox="0 0 1800 1060">
  <defs>
    <marker id="arrow" markerWidth="10" markerHeight="10" refX="9" refY="3" orient="auto" markerUnits="strokeWidth">
      <path d="M0,0 L10,3 L0,6 z" fill="#334155"/>
    </marker>
    <style>
      .title { font: 700 28px Arial, sans-serif; fill: #0f172a; }
      .label { font: 600 14px Arial, sans-serif; fill: #0f172a; }
      .small { font: 500 12px Arial, sans-serif; fill: #1e293b; }
      .box { fill: #ffffff; stroke: #334155; stroke-width: 1.5; rx: 8; ry: 8; }
      .group { fill: #f8fafc; stroke: #64748b; stroke-width: 2; rx: 10; ry: 10; }
      .line { stroke: #334155; stroke-width: 1.6; fill: none; marker-end: url(#arrow); }
      .line-dash { stroke: #334155; stroke-width: 1.6; fill: none; stroke-dasharray: 6 6; marker-end: url(#arrow); }
    </style>
  </defs>

  <text x="40" y="42" class="title">AWS EKS Masterclass Architecture (Tech Stack + AWS Resources)</text>

  <rect x="30" y="60" width="1740" height="970" class="group"/>
  <text x="48" y="88" class="label">AWS Account</text>

  <rect x="70" y="120" width="200" height="90" class="box"/>
  <text x="95" y="155" class="label">Route 53</text>
  <text x="95" y="176" class="small">Hosted Zone / DNS</text>

  <rect x="70" y="230" width="200" height="90" class="box"/>
  <text x="95" y="265" class="label">ACM</text>
  <text x="95" y="286" class="small">TLS Certificate</text>

  <rect x="70" y="370" width="230" height="260" class="group"/>
  <text x="90" y="396" class="label">CI/CD Pipeline</text>

  <rect x="90" y="415" width="190" height="55" class="box"/>
  <text x="145" y="449" class="label">GitHub</text>

  <rect x="90" y="485" width="190" height="55" class="box"/>
  <text x="130" y="519" class="label">CodePipeline</text>

  <rect x="90" y="555" width="190" height="55" class="box"/>
  <text x="136" y="589" class="label">CodeBuild</text>

  <rect x="340" y="120" width="1380" height="870" class="group"/>
  <text x="360" y="148" class="label">VPC (Multi-AZ)</text>

  <rect x="370" y="180" width="1320" height="260" class="group"/>
  <text x="390" y="208" class="label">Public Subnets</text>

  <rect x="390" y="235" width="190" height="90" class="box"/>
  <text x="460" y="270" class="label">ALB</text>
  <text x="425" y="292" class="small">Ingress Endpoint</text>

  <rect x="610" y="235" width="190" height="90" class="box"/>
  <text x="680" y="270" class="label">NLB</text>
  <text x="646" y="292" class="small">Service Endpoint</text>

  <rect x="830" y="235" width="190" height="90" class="box"/>
  <text x="898" y="270" class="label">CLB</text>
  <text x="873" y="292" class="small">Legacy Endpoint</text>

  <rect x="1050" y="235" width="190" height="90" class="box"/>
  <text x="1096" y="270" class="label">NAT Gateway</text>

  <rect x="1270" y="235" width="220" height="90" class="box"/>
  <text x="1320" y="270" class="label">Internet Gateway</text>

  <rect x="370" y="470" width="1320" height="490" class="group"/>
  <text x="390" y="498" class="label">Private Subnets</text>

  <rect x="390" y="525" width="240" height="95" class="box"/>
  <text x="452" y="560" class="label">Amazon EKS</text>
  <text x="430" y="582" class="small">Control Plane</text>

  <rect x="660" y="525" width="240" height="95" class="box"/>
  <text x="706" y="560" class="label">Node Group</text>
  <text x="706" y="582" class="small">EC2 Workers</text>

  <rect x="930" y="525" width="240" height="95" class="box"/>
  <text x="980" y="560" class="label">Fargate</text>
  <text x="962" y="582" class="small">Serverless Pods</text>

  <rect x="1200" y="525" width="220" height="95" class="box"/>
  <text x="1272" y="560" class="label">Amazon ECR</text>
  <text x="1247" y="582" class="small">Container Images</text>

  <rect x="1450" y="525" width="220" height="95" class="box"/>
  <text x="1518" y="560" class="label">RDS MySQL</text>
  <text x="1500" y="582" class="small">Managed Database</text>

  <rect x="390" y="655" width="560" height="275" class="group"/>
  <text x="410" y="680" class="label">Kubernetes Workloads + Add-ons</text>
  <text x="412" y="705" class="small">AWS Load Balancer Controller, ExternalDNS, HPA/VPA/CA</text>
  <text x="412" y="726" class="small">Spring Boot + Nginx Pods, X-Ray DaemonSet, cwagent/fluentd</text>
  <text x="412" y="747" class="small">EBS CSI Driver</text>

  <rect x="980" y="655" width="220" height="95" class="box"/>
  <text x="1044" y="690" class="label">Amazon EBS</text>
  <text x="1016" y="712" class="small">PV/PVC Storage</text>

  <rect x="1230" y="655" width="220" height="95" class="box"/>
  <text x="1276" y="690" class="label">CloudWatch</text>
  <text x="1246" y="712" class="small">Logs / Metrics / Alarms</text>

  <rect x="1480" y="655" width="190" height="95" class="box"/>
  <text x="1540" y="690" class="label">AWS X-Ray</text>
  <text x="1532" y="712" class="small">Tracing</text>

  <rect x="980" y="780" width="690" height="150" class="group"/>
  <text x="1000" y="806" class="label">Identity and Provisioning</text>
  <rect x="1000" y="825" width="300" height="85" class="box"/>
  <text x="1048" y="860" class="label">IAM + IRSA (OIDC)</text>
  <text x="1044" y="882" class="small">ServiceAccount to IAM Role</text>

  <rect x="1330" y="825" width="320" height="85" class="box"/>
  <text x="1386" y="860" class="label">eksctl + CloudFormation</text>
  <text x="1374" y="882" class="small">Cluster and infra provisioning</text>

  <rect x="1540" y="370" width="170" height="80" class="box"/>
  <text x="1580" y="400" class="label">Users</text>
  <text x="1566" y="421" class="small">Client Traffic</text>

  <line x1="1710" y1="410" x2="1488" y2="280" class="line"/>
  <line x1="270" y1="165" x2="390" y2="275" class="line"/>
  <line x1="270" y1="275" x2="390" y2="275" class="line-dash"/>
  <line x1="485" y1="325" x2="510" y2="525" class="line"/>

  <line x1="705" y1="325" x2="680" y2="655" class="line"/>
  <line x1="925" y1="325" x2="720" y2="655" class="line-dash"/>

  <line x1="760" y1="620" x2="760" y2="655" class="line"/>
  <line x1="1050" y1="620" x2="760" y2="655" class="line"/>
  <line x1="1310" y1="620" x2="760" y2="655" class="line"/>

  <line x1="950" y1="790" x2="980" y2="700" class="line"/>
  <line x1="950" y1="750" x2="1450" y2="570" class="line"/>
  <line x1="950" y1="740" x2="1230" y2="700" class="line"/>
  <line x1="950" y1="730" x2="1480" y2="700" class="line"/>

  <line x1="280" y1="442" x2="90" y2="512" class="line"/>
  <line x1="185" y1="470" x2="185" y2="485" class="line"/>
  <line x1="185" y1="540" x2="185" y2="555" class="line"/>
  <line x1="280" y1="585" x2="1200" y2="572" class="line"/>
  <line x1="280" y1="585" x2="510" y2="572" class="line"/>

  <line x1="1000" y1="868" x2="760" y2="760" class="line"/>
  <line x1="1490" y1="868" x2="510" y2="572" class="line"/>

  <text x="420" y="845" class="small">Apps communicate with RDS via Service/ExternalName, pull images from ECR.</text>
  <text x="420" y="866" class="small">Private nodes/pods use NAT Gateway for outbound Internet access.</text>
</svg>
